<?xml version="1.0" encoding="utf-8"?>
<!-- Generator: Adobe Illustrator 22.1.0, SVG Export Plug-In . SVG Version: 6.00 Build 0)  -->
<svg version="1.1" id="图层_1" xmlns="http://www.w3.org/2000/svg" xmlns:xlink="http://www.w3.org/1999/xlink" x="0px" y="0px"
	 viewBox="0 0 1275.6 283.5" style="enable-background:new 0 0 1275.6 283.5;" xml:space="preserve">
<style type="text/css">
	.st0{fill:#EE751B;}
	.st1{fill:#FFFFFF;}
	.st2{font-family:'Montserrat-Bold';}
	.st3{font-size:86px;}
</style>
<path class="st0" d="M1192.8,220.1h-199c-19.4,0-35.2-15.9-35.2-35.2v-64.7c0-19.4,15.9-35.2,35.2-35.2h198.9
	c19.4,0,35.2,15.9,35.2,35.2v64.7C1228,204.3,1212.1,220.1,1192.8,220.1z"/>
<g>
	<g>
		<g>
			<rect x="130.7" y="76.3" class="st1" width="64.1" height="15.1"/>
			<rect x="154.5" y="63.8" class="st1" width="16.6" height="26.4"/>
			<rect x="130.7" y="172.5" class="st1" width="64.1" height="15.1"/>
			<rect x="155.2" y="159.8" class="st1" width="15.1" height="59.7"/>
			<g>
				<path class="st1" d="M162.8,168c-19.9,0-36-16.2-36-36c0-19.9,16.2-36,36-36c19.9,0,36,16.2,36,36S182.6,168,162.8,168z
					 M162.8,111c-11.5,0-20.9,9.4-20.9,20.9s9.4,20.9,20.9,20.9s20.9-9.4,20.9-20.9S174.3,111,162.8,111z"/>
				<path class="st1" d="M174.9,131.9c0,6.7-5.4,12.1-12.1,12.1c-6.7,0-12.1-5.4-12.1-12.1c0-6.7,5.4-12.1,12.1-12.1
					C169.5,119.8,174.9,125.2,174.9,131.9z"/>
			</g>
		</g>
		<g>
			<polygon class="st1" points="211.3,108.4 202.9,94.1 255.3,63.3 307.6,94.1 299.2,108.4 255.3,82.6 			"/>
		</g>
		<g>
			<rect x="358.7" y="82.3" class="st1" width="145.8" height="15.5"/>
			<rect x="423.3" y="69.8" class="st1" width="16.6" height="22"/>
		</g>
		<g>
			<path class="st1" d="M431.6,120.4c-6.7,0-12.2,5.5-12.2,12.2c0,6.7,5.5,12.2,12.2,12.2s12.2-5.5,12.2-12.2
				C443.8,125.9,438.3,120.4,431.6,120.4z M431.6,159.9c-15,0-27.3-12.2-27.3-27.3s12.2-27.3,27.3-27.3c15,0,27.3,12.3,27.3,27.3
				C458.9,147.7,446.7,159.9,431.6,159.9z"/>
		</g>
		<g>
			<polygon class="st1" points="540.6,220.1 524,220.1 524,145.3 481.8,145.3 481.8,128.7 540.6,128.7 			"/>
			<polygon class="st1" points="339.2,219.5 322.6,219.5 322.6,128.7 381.9,128.7 381.9,145.3 339.2,145.3 			"/>
		</g>
		<g>
			<polygon class="st1" points="249.5,219.5 234.4,219.5 234.4,143.9 213,143.9 213,128.8 249.5,128.8 			"/>
			<polygon class="st1" points="214.5,208.9 202.8,202.1 215.5,180.4 202.8,158.8 214.5,151.9 231.3,180.4 			"/>
			<polygon class="st1" points="300.3,219.5 285.2,219.5 285.2,143.9 263.8,143.9 263.8,128.8 300.3,128.8 			"/>
			<polygon class="st1" points="265.3,208.9 253.6,202.1 266.3,180.4 253.6,158.8 265.3,151.9 282.1,180.4 			"/>
		</g>
		<g>
			<path class="st1" d="M431.6,160c-11.6,0-20.9,9.4-20.9,21s9.4,21,20.9,21s20.9-9.4,20.9-21C452.6,169.4,443.2,160,431.6,160z
				 M431.6,217c-19.9,0-36-16.2-36-36.1s16.2-36.1,36-36.1c19.9,0,36,16.2,36,36.1S451.5,217,431.6,217z"/>
		</g>
		<path class="st1" d="M81.2,219.2l-17.8-7.7l23.3-39.7l-24.3-39.7l17.6-8l29.1,47.5L81.2,219.2z M99.8,138.1L68,83.9l17.3-10.1
			l31.8,54.2L99.8,138.1z"/>
	</g>
	<g>
		<g>
			<g>
				<rect x="851.6" y="70.5" class="st1" width="8.6" height="8.7"/>
			</g>
			<g>
				<path class="st1" d="M813.2,149.9h-8.6V81.5c0-2.3,2.4-4.2,5.3-4.2h83.6V84h-79.3c-0.6,0-1.1,0.4-1.1,0.8L813.2,149.9
					L813.2,149.9z"/>
			</g>
			<g>
				<rect x="821.1" y="95.9" class="st1" width="72.4" height="6.7"/>
			</g>
			<g>
				<path class="st1" d="M893.4,120.7h-66.8c-1.6,0-3.1-0.6-3.9-1.6c-0.8-1-0.9-2.3-0.1-3.3l21.9-30.6l8,3.2L835,112.8
					c-0.4,0.6,0.1,1.2,1,1.2h57.4V120.7z"/>
			</g>
			<g>
				<rect x="854.1" y="101.6" class="st1" width="8.6" height="48.3"/>
			</g>
			<g>
				<rect x="822.2" y="129.5" class="st1" width="71.3" height="6.7"/>
			</g>
		</g>
		<g>
			<line class="st1" x1="566.6" y1="106.7" x2="566.6" y2="106.6"/>
		</g>
		<g>
			<g>
				<rect x="573.1" y="74.7" class="st1" width="8.6" height="8.9"/>
			</g>
			<g>
				<rect x="603.3" y="74.2" class="st1" width="8.6" height="9.7"/>
			</g>
			<g>
				<path class="st1" d="M595.6,106H587c-0.2-34.5,0-34.8,0.1-35.3l8.3,0.1"/>
			</g>
			<g>
				<rect x="568.6" y="82.2" class="st1" width="49.5" height="6.7"/>
			</g>
			<g>
				<path class="st1" d="M573.5,150.2l-4.8-5.8l38.4-18.2c0.3-0.2,0.5-0.4,0.5-0.7v-7.8c0-0.5-0.5-0.8-1.1-0.8H569V110h44.3
					c1.8,0,3.3,1.1,3.3,2.5v15.8c0,0.9-0.6,1.7-1.5,2.1L573.5,150.2z"/>
			</g>
			<g>
				<polygon class="st1" points="613,150.3 574.8,129.5 577,106 585.6,106.5 583.7,126.3 618,144.9 				"/>
			</g>
			<g>
				<path class="st1" d="M624.9,150l-6.9-4l38.2-42.3c0.1-0.1,0.2-0.3,0.2-0.5V90.1c0-0.5-0.5-0.8-1.1-0.8h-35.2V70.7h8.6v11.8h33.1
					c1.7,0,3.2,1.1,3.2,2.5v19.8c0,0.5-0.2,1.1-0.6,1.5L624.9,150z"/>
			</g>
			<g>
				<polygon class="st1" points="658.3,149.8 620.7,107.6 620.7,90.7 629.3,90.7 629.3,105.4 665.3,145.8 				"/>
			</g>
			<g>
				<polygon class="st1" points="573,105.5 568.2,100.2 581.3,91.3 586.4,91.3 586.4,98 584,98 				"/>
			</g>
			<g>
				<polygon class="st1" points="609.5,105.5 614.3,100.2 601.2,91.3 596.1,91.3 596.1,98 598.6,98 				"/>
			</g>
		</g>
		<g>
			<g>
				<path class="st1" d="M700.9,150.1H687v-6.9h9.6V72.3h8.6v74.3C705.2,148.5,703.2,150.1,700.9,150.1z"/>
			</g>
			<path class="st1" d="M778.3,71.5h-56.5c-2.4,0-4.3,1.5-4.3,3.5v0.4v19.3V150h8.6V98.1h52.2c2.4,0,4.3-1.5,4.3-3.5V75
				C782.6,73.1,780.7,71.5,778.3,71.5z M773,91.2h-45.8c-0.6,0-1.1-0.4-1.1-0.9v-11c0-0.5,0.5-0.9,1.1-0.9H773
				c0.6,0,1.1,0.4,1.1,0.9v11.1C774.1,90.8,773.6,91.2,773,91.2z"/>
			<g>
				<rect x="729.8" y="104.8" class="st1" width="52.6" height="7"/>
			</g>
			<g>
				<rect x="750.7" y="97.5" class="st1" width="8.6" height="22.7"/>
			</g>
			<g>
				<path class="st1" d="M778.2,150h-44.7c-2.4,0-4.3-1.6-4.3-3.5v-24.7c0-1.9,1.9-3.5,4.3-3.5h44.7c2.4,0,4.3,1.6,4.3,3.5v24.7
					C782.5,148.5,780.5,150,778.2,150z M738.9,143.1h34c0.6,0,1.1-0.4,1.1-0.9v-16c0-0.5-0.5-0.9-1.1-0.9h-34
					c-0.6,0-1.1,0.4-1.1,0.9v16C737.8,142.7,738.3,143.1,738.9,143.1z"/>
			</g>
			<g>
				<rect x="686.6" y="85.7" class="st1" width="28.6" height="7"/>
			</g>
			<g>
				<polygon class="st1" points="690.8,121.3 686.3,115.3 711.1,103.1 715.6,109 				"/>
			</g>
		</g>
	</g>
	<g>
		<path class="st1" d="M591.5,176.6H578v9h-4.5v-22.5h4.5v9h13.5v-9h4.5v22.5h-4.5V176.6z"/>
		<path class="st1" d="M618.5,163.1h4.5v22.5h-4.5V163.1z"/>
		<path class="st1" d="M645.6,163.1h22.5v4.5h-18v13.5h13.5v-4.5h-9v-4.5h13.5v13.5h-22.5V163.1z"/>
		<path class="st1" d="M706.9,176.6h-13.5v9h-4.5v-22.5h4.5v9h13.5v-9h4.5v22.5h-4.5V176.6z"/>
		<path class="st1" d="M734,163.1h22.5v4.5h-18v13.5H752v-4.5h-9v-4.5h13.5v13.5H734V163.1z"/>
		<path class="st1" d="M779,163.1h22.5v22.5H779V163.1z M783.5,181.1H797v-13.5h-13.5V181.1z"/>
		<path class="st1" d="M573.5,197.6h18v4.5h4.5v13.5h-4.5v-13.5H578v13.5h13.5v4.5h-18V197.6z"/>
		<path class="st1" d="M628,211.1h-13.5v9H610v-22.5h22.5v22.5H628V211.1z M614.5,206.6H628v-4.5h-13.5V206.6z"/>
		<path class="st1" d="M645.8,197.6h22.5v4.5h-9v18h-4.5v-18h-9V197.6z"/>
		<path class="st1" d="M706.9,211.1h-13.5v9h-4.5v-22.5h22.5v22.5h-4.5V211.1z M693.3,206.6h13.5v-4.5h-13.5V206.6z"/>
		<path class="st1" d="M752,211.1h4.5v9H734v-22.5h22.5v9H752V211.1z M752,202.1h-13.5v4.5H752V202.1z M738.5,211.1v4.5H752v-4.5
			H738.5z"/>
		<path class="st1" d="M797.2,211.1h-13.5v9h-4.5v-22.5h22.5v22.5h-4.5V211.1z M783.7,206.6h13.5v-4.5h-13.5V206.6z"/>
		<path class="st1" d="M824.6,197.6h22.5v4.5h-18v4.5h18v13.5h-22.5v-4.5h18v-4.5h-18V197.6z"/>
		<path class="st1" d="M869.8,197.6h22.5v4.5h-18v4.5h9v4.5h-9v4.5h18v4.5h-22.5V197.6z"/>
	</g>
</g>
<text transform="matrix(1 0 0 1 989.4733 181.1925)" class="st1 st2 st3">Docs</text>
</svg>
